<?xml version="1.0" standalone="no"?>
<!DOCTYPE svg PUBLIC "-//W3C//DTD SVG 20010904//EN"
 "http://www.w3.org/TR/2001/REC-SVG-20010904/DTD/svg10.dtd">
<svg version="1.0" xmlns="http://www.w3.org/2000/svg"
 width="1356.000000pt" height="1356.000000pt" viewBox="0 0 1356.000000 1356.000000"
 preserveAspectRatio="xMidYMid meet">
<metadata>
Created by potrace 1.14, written by Peter Selinger 2001-2017
</metadata>
<g transform="translate(0.000000,1356.000000) scale(0.100000,-0.100000)"
fill="#000000" stroke="none">
<path d="M7048 12165 c-2 -2 -51 -6 -108 -10 -58 -3 -121 -7 -140 -10 -19 -2
-68 -7 -108 -10 -41 -4 -81 -8 -90 -10 -9 -1 -48 -6 -87 -9 -38 -4 -77 -9 -85
-11 -8 -2 -35 -7 -60 -10 -101 -14 -119 -17 -215 -35 -55 -10 -116 -22 -135
-25 -19 -3 -75 -15 -125 -26 -49 -12 -97 -22 -105 -24 -8 -2 -62 -15 -120 -30
-58 -15 -109 -28 -115 -29 -45 -11 -125 -35 -275 -83 -679 -215 -1334 -551
-1895 -971 -114 -85 -268 -209 -331 -267 -6 -5 -44 -39 -85 -75 -267 -237
-613 -622 -802 -895 -239 -343 -418 -664 -562 -1005 -82 -195 -197 -543 -203
-616 -4 -53 -2 -63 20 -89 20 -23 32 -28 63 -27 74 3 127 58 170 176 75 205
111 297 136 354 16 34 29 65 29 68 0 10 137 279 186 367 66 115 167 277 238
377 55 78 213 288 226 300 3 3 45 52 94 110 103 120 362 382 481 485 44 39 82
72 85 75 35 36 356 283 460 353 423 285 788 479 1249 662 353 140 741 256
1081 325 25 5 56 12 70 15 94 20 352 64 420 71 25 2 54 6 65 8 11 2 49 7 85
10 36 4 76 9 90 11 22 4 98 10 235 20 243 18 624 22 845 10 211 -11 352 -22
410 -30 14 -2 54 -6 90 -10 36 -3 90 -10 120 -15 30 -5 75 -12 100 -14 25 -3
55 -8 66 -10 12 -2 37 -7 55 -10 19 -3 43 -7 54 -10 11 -2 40 -7 65 -11 75
-12 216 -41 270 -55 19 -5 46 -11 60 -14 98 -17 418 -109 625 -179 430 -146
836 -332 1210 -556 61 -36 114 -68 118 -70 51 -22 497 -340 571 -406 6 -6 38
-32 71 -59 171 -137 470 -432 630 -620 125 -147 294 -369 360 -475 6 -8 30
-47 55 -86 216 -339 394 -727 509 -1110 54 -181 110 -439 131 -604 7 -52 14
-106 15 -120 15 -113 20 -231 20 -446 0 -270 -10 -435 -36 -595 -6 -36 -12
-74 -14 -85 -2 -17 -24 -134 -39 -210 -53 -266 -190 -659 -338 -965 -161 -333
-460 -784 -683 -1026 -5 -7 -39 -44 -75 -84 -151 -169 -323 -333 -570 -544
-65 -56 -288 -222 -400 -298 -294 -201 -695 -426 -960 -537 -41 -18 -83 -36
-94 -42 -39 -22 -358 -143 -512 -195 -224 -75 -509 -152 -734 -200 -74 -15
-178 -36 -200 -39 -14 -3 -36 -7 -50 -9 -13 -3 -40 -8 -60 -11 -20 -3 -47 -7
-60 -10 -13 -2 -46 -7 -73 -10 -28 -3 -53 -7 -56 -9 -3 -2 -37 -7 -76 -11 -38
-4 -83 -8 -100 -11 -16 -2 -57 -6 -90 -9 -33 -3 -76 -8 -95 -10 -19 -2 -89 -7
-155 -11 -66 -4 -138 -8 -160 -10 -63 -4 -551 -4 -645 1 -47 2 -119 7 -160 10
-41 4 -97 8 -125 10 -65 4 -163 15 -195 20 -14 2 -54 7 -90 11 -36 3 -74 8
-85 10 -11 2 -40 6 -65 9 -25 3 -56 8 -70 10 -51 11 -75 15 -110 20 -32 5
-355 70 -390 79 -8 2 -44 12 -80 21 -36 9 -73 19 -83 20 -94 19 -470 139 -682
218 -249 92 -566 238 -784 359 -58 32 -106 58 -107 58 -2 0 -56 32 -121 71
-808 488 -1448 1121 -1878 1859 -74 127 -255 487 -255 508 0 5 -8 24 -17 42
-9 19 -44 112 -79 207 -34 95 -69 184 -78 198 -50 76 -166 78 -196 4 -18 -42
-7 -105 50 -281 358 -1112 1099 -2077 2150 -2800 103 -70 338 -218 347 -218 4
0 14 -6 22 -14 62 -54 596 -316 831 -407 41 -16 84 -34 95 -39 31 -15 267 -97
400 -140 269 -85 593 -165 840 -206 17 -3 66 -12 110 -19 44 -8 103 -17 130
-20 28 -3 61 -8 75 -10 24 -4 70 -10 155 -19 22 -3 66 -8 98 -11 293 -34 960
-39 1247 -11 19 2 71 7 115 11 44 3 89 8 100 10 11 2 47 7 80 10 33 3 87 10
120 15 33 5 78 12 100 15 22 4 51 8 65 11 14 2 41 7 60 10 27 4 189 36 350 69
43 9 274 69 334 86 38 11 76 22 85 24 9 2 104 32 211 68 474 157 903 355 1325
611 163 98 328 209 489 329 41 30 218 169 232 182 7 5 64 55 128 110 157 135
467 451 599 610 208 249 412 538 538 760 87 154 120 217 184 350 138 286 287
698 339 935 3 14 17 75 30 135 30 131 32 144 51 260 34 216 39 263 51 475 13
223 7 634 -11 732 -3 14 -7 49 -9 79 -7 73 -15 139 -21 169 -2 14 -7 45 -10
70 -17 123 -78 394 -126 559 -416 1428 -1471 2640 -2934 3369 -142 71 -175 86
-300 140 -180 77 -396 160 -540 207 -123 40 -323 101 -362 110 -10 2 -61 16
-113 30 -52 14 -111 28 -130 31 -19 3 -38 8 -41 10 -6 3 -148 33 -239 50 -67
13 -188 34 -215 38 -36 6 -178 25 -220 31 -137 17 -168 21 -295 30 -47 4 -103
9 -125 12 -45 5 -802 13 -807 8z"/>
<path d="M9207 10634 c-1 -1 -74 -5 -162 -8 -88 -4 -178 -8 -200 -11 -92 -9
-155 -17 -240 -31 -49 -8 -103 -17 -120 -20 -352 -58 -838 -238 -1190 -440
-763 -438 -1375 -1153 -1684 -1966 -49 -128 -55 -160 -41 -203 16 -50 58 -66
132 -51 48 9 98 66 132 151 23 57 125 270 146 305 5 8 33 56 62 105 210 360
561 754 883 990 22 16 42 32 45 35 3 4 56 42 118 84 392 267 847 462 1307 560
150 32 254 49 350 60 28 3 68 8 90 10 190 22 629 23 743 1 9 -1 49 -6 87 -10
59 -5 201 -28 318 -50 61 -12 198 -46 297 -75 58 -17 112 -33 120 -35 32 -7
191 -68 305 -117 304 -130 609 -312 863 -517 62 -50 121 -99 130 -109 10 -9
56 -53 103 -98 91 -87 165 -165 245 -259 205 -239 423 -592 547 -885 74 -177
168 -482 192 -625 3 -16 12 -66 20 -110 31 -180 40 -296 40 -540 0 -190 -8
-341 -20 -406 -3 -13 -7 -45 -10 -70 -3 -25 -8 -56 -10 -70 -3 -13 -8 -40 -11
-59 -3 -19 -7 -43 -10 -52 -3 -10 -7 -30 -10 -45 -11 -67 -77 -292 -120 -410
-168 -464 -435 -884 -789 -1239 -266 -268 -506 -449 -840 -635 -298 -166 -739
-327 -1050 -383 -17 -3 -41 -8 -55 -11 -81 -16 -105 -20 -185 -30 -33 -4 -68
-9 -78 -11 -105 -19 -652 -26 -792 -11 -432 48 -766 132 -1120 279 -66 28
-147 64 -180 81 -33 17 -62 31 -65 32 -14 1 -200 107 -305 174 -430 272 -790
623 -1073 1048 -34 51 -62 94 -62 97 0 2 -17 33 -38 67 -45 73 -109 198 -180
349 -30 64 -63 117 -83 136 -34 31 -80 51 -109 49 -8 -1 -23 -3 -32 -3 -32 -3
-58 -39 -58 -82 0 -84 149 -437 292 -688 122 -214 288 -452 436 -622 67 -76
300 -312 382 -385 278 -250 697 -511 1055 -658 168 -68 413 -152 501 -172 10
-2 69 -15 129 -29 61 -14 121 -27 135 -30 113 -20 149 -25 208 -32 29 -3 63
-7 75 -10 131 -25 728 -25 887 0 14 3 43 7 65 10 66 8 177 27 220 36 22 5 56
12 75 15 109 18 420 110 570 168 257 99 531 241 755 390 88 59 291 211 350
262 413 358 706 727 944 1186 39 74 84 168 101 209 18 41 38 89 46 105 66 148
189 560 209 705 4 25 13 74 20 110 8 36 17 99 20 140 4 41 8 80 10 87 10 31
19 238 19 418 -1 333 -21 509 -99 879 -15 67 -53 200 -91 319 -311 953 -1007
1767 -1899 2222 -202 102 -276 135 -480 207 -118 41 -281 92 -335 103 -56 12
-172 37 -205 45 -40 10 -76 16 -150 25 -22 3 -49 8 -61 10 -11 2 -45 7 -75 10
-30 3 -70 7 -89 10 -19 2 -93 7 -165 10 -71 4 -147 8 -168 9 -20 1 -38 1 -40
0z"/>
<path d="M6805 7839 c-249 -39 -411 -207 -440 -459 -14 -123 -16 -130 -41
-149 -14 -11 -56 -32 -94 -46 -59 -22 -70 -31 -70 -50 0 -33 16 -42 99 -54 41
-7 80 -16 87 -21 17 -15 14 -886 -4 -918 -17 -30 -62 -49 -137 -56 -95 -10
-114 -20 -115 -58 0 -21 46 -32 125 -28 70 3 541 3 632 0 81 -2 103 5 103 35
0 27 -32 39 -130 50 -30 3 -71 10 -90 16 -87 23 -85 8 -86 511 -1 240 3 442 7
450 6 10 51 13 189 14 126 1 185 6 195 14 19 15 20 74 2 89 -9 6 -84 12 -203
13 l-189 3 0 125 c1 165 11 247 37 317 34 93 98 136 176 118 38 -8 63 -35 102
-115 41 -82 65 -108 107 -116 52 -10 89 11 115 65 30 62 32 159 3 191 -21 24
-70 47 -119 56 -50 10 -206 11 -261 3z"/>
<path d="M9225 7829 c-64 -20 -241 -65 -290 -73 -60 -11 -89 -22 -99 -39 -18
-28 12 -44 103 -56 46 -6 90 -16 97 -22 12 -9 14 -142 14 -754 0 -694 -1 -743
-18 -758 -25 -23 -59 -34 -131 -41 -35 -4 -72 -11 -82 -17 -36 -19 -15 -71 28
-70 271 6 601 6 644 2 70 -8 115 3 122 29 8 30 -13 40 -135 61 -62 11 -120 27
-128 35 -13 13 -15 125 -15 859 0 464 -3 846 -6 850 -14 13 -47 11 -104 -6z"/>
<path d="M40 7642 c-28 -4 -40 -18 -40 -44 0 -26 30 -37 122 -44 93 -7 139
-27 149 -64 4 -14 7 -321 8 -682 l1 -657 -23 -25 c-19 -22 -35 -27 -117 -36
-52 -6 -103 -13 -112 -16 -21 -6 -34 -42 -19 -57 15 -15 87 -23 156 -16 50 5
596 3 660 -2 48 -4 85 2 99 17 40 40 7 61 -107 69 -113 9 -159 15 -178 26 -43
23 -47 50 -47 347 0 254 1 283 16 290 18 9 64 7 145 -7 66 -12 329 -12 397 0
30 5 72 11 94 14 66 11 218 65 286 102 81 46 164 127 193 190 17 38 22 66 21
133 0 96 -21 153 -82 228 -73 89 -256 182 -412 208 -14 3 -32 7 -40 9 -46 13
-177 20 -340 18 -452 -4 -582 -4 -690 0 -63 2 -126 2 -140 -1z m969 -98 c107
-17 202 -55 273 -107 79 -59 133 -197 117 -300 -32 -202 -233 -317 -553 -318
-113 0 -188 16 -226 47 l-29 25 1 297 c0 163 2 305 5 315 5 21 36 38 83 47 57
11 246 8 329 -6z"/>
<path d="M10205 7597 c-16 -5 -59 -29 -95 -52 -36 -23 -88 -54 -116 -68 -63
-32 -82 -53 -67 -75 29 -47 231 -54 317 -11 65 33 91 68 90 125 0 74 -53 107
-129 81z"/>
<path d="M5215 7427 c-114 -117 -145 -145 -238 -212 -62 -45 -79 -67 -71 -90
8 -19 29 -24 117 -28 37 -2 72 -8 78 -14 8 -8 12 -158 13 -480 1 -396 3 -472
16 -493 59 -98 143 -132 328 -131 172 0 254 37 326 145 36 54 58 125 40 127
-64 8 -65 8 -135 -56 -47 -44 -84 -68 -112 -76 -58 -16 -134 -7 -159 19 -21
20 -21 29 -21 472 0 339 3 454 12 460 7 4 75 7 152 7 147 1 194 11 204 44 7
22 -8 54 -29 62 -9 4 -83 7 -165 8 -113 1 -153 4 -161 14 -7 9 -12 68 -13 158
-3 223 -21 229 -182 64z"/>
<path d="M2469 7216 c-2 -2 -25 -7 -50 -10 -239 -32 -482 -215 -555 -417 -24
-69 -26 -79 -30 -172 -15 -368 323 -644 779 -639 364 5 657 201 732 490 19 75
21 178 5 247 -18 75 -85 204 -131 253 -158 167 -340 242 -605 249 -77 2 -142
1 -145 -1z m220 -91 c97 -17 199 -90 262 -188 66 -102 88 -177 94 -317 14
-325 -193 -569 -471 -554 -117 6 -207 47 -288 134 -130 139 -178 391 -112 597
80 248 271 370 515 328z"/>
<path d="M3872 7175 c-40 -25 -78 -45 -85 -45 -7 0 -17 -4 -22 -9 -10 -8 -71
-25 -135 -36 -40 -7 -70 -31 -70 -56 0 -20 17 -26 80 -28 60 -2 108 -18 120
-41 15 -27 13 -802 -1 -834 -13 -27 -26 -32 -119 -42 -76 -8 -100 -18 -100
-43 0 -34 26 -44 113 -41 109 3 457 4 580 1 98 -3 127 5 127 35 0 25 -31 34
-165 50 -142 16 -137 2 -137 391 0 273 2 325 17 368 46 137 136 225 230 225
28 0 33 -4 39 -31 3 -17 6 -44 6 -58 0 -42 45 -78 110 -88 136 -21 217 28 225
136 4 70 -21 114 -90 160 -37 24 -48 26 -155 26 -109 0 -119 -2 -184 -33 -52
-24 -88 -52 -143 -109 -40 -41 -75 -74 -78 -72 -2 3 -5 39 -6 81 -4 150 -35
169 -157 93z"/>
<path d="M7713 7200 c-162 -37 -280 -99 -384 -201 -183 -181 -225 -420 -114
-646 145 -293 548 -443 940 -347 322 78 541 330 529 609 -3 78 -10 113 -35
179 -64 173 -234 320 -443 385 -103 32 -110 33 -266 36 -114 3 -162 0 -227
-15z m292 -75 c70 -14 95 -24 144 -58 113 -77 187 -201 216 -362 6 -38 8 -192
2 -202 -3 -4 -8 -24 -11 -45 -18 -113 -99 -248 -189 -314 -122 -91 -291 -105
-434 -38 -117 56 -217 194 -249 344 -4 19 -9 42 -11 50 -6 22 -5 181 1 209 50
233 175 377 360 415 60 13 113 13 171 1z"/>
<path d="M10162 7189 c-40 -16 -134 -45 -210 -64 -75 -19 -143 -42 -152 -51
-13 -14 -13 -17 7 -33 12 -10 48 -22 80 -26 79 -9 121 -30 127 -63 3 -15 4
-202 4 -415 -1 -362 -2 -390 -20 -412 -18 -23 -35 -28 -143 -41 -48 -6 -95
-26 -95 -42 1 -34 41 -48 117 -42 54 5 413 4 627 -1 27 -1 44 4 52 16 27 36
-9 58 -114 69 -71 8 -120 30 -131 58 -4 13 -8 253 -7 533 1 281 -2 518 -7 528
-11 25 -50 21 -135 -14z"/>
<path d="M11257 7205 c-374 -75 -615 -358 -574 -675 42 -323 358 -552 762
-552 107 0 131 3 240 28 181 43 342 152 436 297 112 172 116 400 11 574 -95
157 -235 256 -447 315 -91 26 -328 33 -428 13z m318 -91 c199 -63 328 -279
320 -534 -11 -315 -213 -532 -481 -515 -182 11 -322 130 -390 332 -52 154 -34
372 42 508 64 114 193 208 304 222 25 3 46 6 48 8 8 7 114 -8 157 -21z"/>
</g>
</svg>
